<mxfile host="app.diagrams.net" modified="2024-05-05T16:24:06.791Z" agent="Mozilla/5.0 (Windows NT 10.0; Win64; x64; rv:125.0) Gecko/20100101 Firefox/125.0" version="24.3.1" etag="TYy9dLRoBEhqpTq_pKEw" type="github">
  <diagram name="Page-1" id="BRHi-uayzUta_yZaCrEU">
    <mxGraphModel>
      <root>
        <mxCell id="0" />
        <mxCell id="1" parent="0" />
      </root>
    </mxGraphModel>
  </diagram>
</mxfile>
